<svg width="15" height="15" viewBox="0 0 15 15" fill="none" xmlns="http://www.w3.org/2000/svg">
<path d="M7.7091 0.160714L9.32475 5.39286C9.35876 5.48214 9.4438 5.55357 9.52883 5.55357H14.7669C14.988 5.55357 15.073 5.83929 14.903 5.96429L10.6683 9.21429C10.5833 9.26786 10.5662 9.375 10.5833 9.46429L12.1989 14.6964C12.2669 14.9107 12.0288 15.0893 11.8588 14.9464L7.64108 11.7321C7.55604 11.6786 7.454 11.6786 7.38597 11.7321L3.13427 14.9643C2.96421 15.0893 2.72611 14.9107 2.79414 14.7143L4.40978 9.46429C4.4438 9.375 4.40978 9.26786 4.32475 9.21429L0.0900558 5.96429C-0.0800122 5.83929 0.00502181 5.55357 0.22611 5.55357H5.46421C5.56625 5.55357 5.65128 5.48214 5.66829 5.39286L7.28393 0.160714C7.36897 -0.0535714 7.65808 -0.0535714 7.7091 0.160714Z" fill="#FED956"/>
</svg>
